<?xml version="1.0" encoding="utf-8"?>
<!-- Generator: Adobe Illustrator 24.1.2, SVG Export Plug-In . SVG Version: 6.00 Build 0)  -->
<svg version="1.1" id="Layer_1" xmlns="http://www.w3.org/2000/svg" xmlns:xlink="http://www.w3.org/1999/xlink" x="0px" y="0px"
	 viewBox="0 0 512 512" style="enable-background:new 0 0 512 512;" xml:space="preserve">
<style type="text/css">
	.st0{fill:url(#SVGID_1_);}
</style>
<linearGradient id="SVGID_1_" gradientUnits="userSpaceOnUse" x1="256" y1="0" x2="256" y2="512">
	<stop  offset="0" style="stop-color:#C7CED8"/>
	<stop  offset="1" style="stop-color:#9FAAB7"/>
</linearGradient>
<path class="st0" d="M150.2,251C123,223.2,108,186.6,108,148C108,66.4,174.4,0,256,0s148,66.4,148,148
	c0,69.7-48.4,128.2-113.3,143.9c-6.9,12-19.9,20.1-34.7,20.1c-22.1,0-40-17.9-40-40s17.9-40,40-40c14.2,0,26.7,7.4,33.8,18.6
	c43-14.2,74.2-54.8,74.2-102.6c0-59.6-48.4-108-108-108S148,88.4,148,148c0,28.1,10.9,54.7,30.8,75c7.7,7.9,7.6,20.6-0.3,28.3
	C170.6,259,157.9,258.9,150.2,251z M471.4,325c-17-14.9-37.5-27.8-61.2-38.3c-10.1-4.5-21.9,0.1-26.4,10.2s0.1,21.9,10.2,26.4
	c19.9,8.9,37.1,19.5,51,31.8c17.2,15.1,27,36.9,27,59.9v37c0,11-9,20-20,20H60c-11,0-20-9-20-20v-37c0-23,9.8-44.9,27-59.9
	c16.8-14.7,47-35,96.1-47.7c10.7-2.8,17.1-13.7,14.3-24.4c-2.8-10.7-13.7-17.1-24.4-14.3C96.4,283.4,60.6,307.4,40.6,325
	C14.8,347.7,0,380.5,0,415v37c0,33.1,26.9,60,60,60h392c33.1,0,60-26.9,60-60v-37C512,380.5,497.2,347.7,471.4,325z"/>
</svg>
