<?xml version="1.0" encoding="utf-8"?>
<!-- Generator: Adobe Illustrator 24.1.2, SVG Export Plug-In . SVG Version: 6.00 Build 0)  -->
<svg version="1.1" id="Layer_1" xmlns="http://www.w3.org/2000/svg" xmlns:xlink="http://www.w3.org/1999/xlink" x="0px" y="0px"
	 viewBox="0 0 384 363" style="enable-background:new 0 0 384 363;" xml:space="preserve">
<style type="text/css">
	.st0{fill:url(#SVGID_1_);}
</style>
<linearGradient id="SVGID_1_" gradientUnits="userSpaceOnUse" x1="12.7929" y1="343.7216" x2="346.3696" y2="-1.707" gradientTransform="matrix(1 0 0 -1 0 366)">
	<stop  offset="0" style="stop-color:#46AEF7"/>
	<stop  offset="1" style="stop-color:#1DD5E6"/>
</linearGradient>
<path class="st0" d="M336,71V55c0-26.5-21.5-48-48-48H48C21.5,7,0,28.5,0,55v256c0,26.5,21.5,48,48,48h288c26.5,0,48-21.5,48-48V119
	C384,92.5,362.5,71,336,71z M48,39h240c8.8,0,16,7.2,16,16v16H48c-8.8,0-16-7.2-16-16S39.2,39,48,39z M336,327H48
	c-8.8,0-16-7.2-16-16V100.3c5,1.8,10.4,2.7,16,2.7h288c8.8,0,16,7.2,16,16v40h-88c-30.9,0-56,25.1-56,56s25.1,56,56,56h88v40
	C352,319.8,344.8,327,336,327z M352,239h-37.4c3.5-7.4,5.4-15.6,5.4-24c0-8.6-2-16.7-5.5-24H352V239z M240,215c0-13.2,10.8-24,24-24
	c13.2,0,24,10.8,24,24c0,6.4-2.5,12.5-6.9,16.9c-4.6,4.6-10.7,7.1-17.1,7.1C250.8,239,240,228.2,240,215z"/>
</svg>
