<?xml version="1.0" encoding="utf-8"?>
<!-- Generator: Adobe Illustrator 24.1.2, SVG Export Plug-In . SVG Version: 6.00 Build 0)  -->
<svg version="1.1" id="Layer_1" xmlns="http://www.w3.org/2000/svg" xmlns:xlink="http://www.w3.org/1999/xlink" x="0px" y="0px"
	 viewBox="0 0 512 512" style="enable-background:new 0 0 512 512;" xml:space="preserve">
<style type="text/css">
	.st0{fill:url(#SVGID_1_);}
</style>
<linearGradient id="SVGID_1_" gradientUnits="userSpaceOnUse" x1="89.0064" y1="149.2872" x2="421.9647" y2="494.0756">
	<stop  offset="0" style="stop-color:#46AEF7"/>
	<stop  offset="1" style="stop-color:#1DD5E6"/>
</linearGradient>
<path class="st0" d="M506.1,264.7c-3.9,3.9-9,5.8-14.1,5.8c-5.1,0-10.3-2-14.2-5.9L462,248.7v72.8c0,11-9,20-20,20s-20-9-20-20
	V208.4L269.9,55.3c-7.5-6.4-18.5-6.4-25.9-0.1L90,208.9c0,0.2,0,0.4,0,0.6v212c0,22.1,17.9,40,40,40h252c22.1,0,40-17.9,40-40
	c0-11,9-20,20-20s20,9,20,20c0,44.1-35.9,80-80,80H130c-44.1,0-80-35.9-80-80V248.8l-15.9,15.8c-7.8,7.8-20.5,7.8-28.3,0
	c-7.8-7.8-7.8-20.5,0-28.3c0,0,210.8-210.4,211.1-210.7c22.8-20.3,57.2-20.3,80,0.2c0.3,0.3,209.2,210.5,209.2,210.5
	C514,244.2,513.9,256.9,506.1,264.7L506.1,264.7z M199,328c-10.1-12.4-16.2-28.3-16.2-45.5c0-39.7,32.3-72,72-72s72,32.3,72,72
	c0,17.3-6.2,33.3-16.4,45.7c14.5,6.9,27.9,16.6,39.2,28.6c7.6,8,7.2,20.7-0.8,28.3c-3.9,3.7-8.8,5.5-13.7,5.5
	c-5.3,0-10.6-2.1-14.5-6.3c-17-18-41.5-28.7-65.5-28.7c-24.9,0-48.8,10.1-65.5,27.7c-7.6,8-20.2,8.4-28.3,0.8
	c-8-7.6-8.4-20.2-0.8-28.3C171.5,344.1,184.6,334.8,199,328L199,328z M222.8,282.5c0,17.6,14.4,32,32,32s32-14.4,32-32
	s-14.4-32-32-32S222.8,264.9,222.8,282.5L222.8,282.5z"/>
</svg>
