<?xml version="1.0" encoding="utf-8"?>
<!-- Generator: Adobe Illustrator 24.1.2, SVG Export Plug-In . SVG Version: 6.00 Build 0)  -->
<svg version="1.1" id="Capa_1" xmlns="http://www.w3.org/2000/svg" xmlns:xlink="http://www.w3.org/1999/xlink" x="0px" y="0px"
	 viewBox="0 0 512 395.5" style="enable-background:new 0 0 512 395.5;" xml:space="preserve">
<style type="text/css">
	.st0{fill:url(#SVGID_1_);}
</style>
<g>
	<g>
		
			<linearGradient id="SVGID_1_" gradientUnits="userSpaceOnUse" x1="57.8141" y1="405.2275" x2="454.1859" y2="-5.2275" gradientTransform="matrix(1 0 0 -1 0 400)">
			<stop  offset="0" style="stop-color:#46AEF7"/>
			<stop  offset="1" style="stop-color:#1DD5E6"/>
		</linearGradient>
		<path class="st0" d="M492,235.5c11,0,20-9,20-20v-131c0-44.1-35.9-80-80-80H80c-44.1,0-80,35.9-80,80v231c0,44.1,35.9,80,80,80
			h352c44.1,0,80-35.9,80-80c0-11-9-20-20-20s-20,9-20,20c0,22.1-17.9,40-40,40H80c-22.1,0-40-17.9-40-40V88.7l173.8,108
			c13,8.1,27.6,12.2,42.2,12.2c14.6,0,29.2-4.1,42.2-12.2L472,88.7v126.8C472,226.5,481,235.5,492,235.5z M277.1,162.8
			c-13,8.1-29.2,8.1-42.2,0L56.7,52c6.6-4.7,14.6-7.5,23.3-7.5h352c8.7,0,16.7,2.8,23.3,7.5L277.1,162.8z"/>
	</g>
</g>
</svg>
