<?xml version="1.0" encoding="utf-8"?>
<!-- Generator: Adobe Illustrator 24.1.2, SVG Export Plug-In . SVG Version: 6.00 Build 0)  -->
<svg version="1.1" id="Capa_1" xmlns="http://www.w3.org/2000/svg" xmlns:xlink="http://www.w3.org/1999/xlink" x="0px" y="0px"
	 viewBox="0 0 496.1 496.1" style="enable-background:new 0 0 496.1 496.1;" xml:space="preserve">
<style type="text/css">
	.st0{fill:url(#SVGID_1_);}
	.st1{fill:url(#SVGID_2_);}
	.st2{fill:url(#SVGID_3_);}
</style>
<g>
	<g id="Icons_41_">
		<g>
			<linearGradient id="SVGID_1_" gradientUnits="userSpaceOnUse" x1="175.2566" y1="269.3352" x2="320.2471" y2="419.4772">
				<stop  offset="0" style="stop-color:#46AEF7"/>
				<stop  offset="1" style="stop-color:#1DD5E6"/>
			</linearGradient>
			<path class="st0" d="M329.7,283.9c-19.9,25.3-49.1,41.4-81.6,41.4c-32.5,0-61.6-16.1-81.6-41.4c-17,8.2-31.2,21.9-39.6,39.6
				l-15.1,31.9c31.8,40.4,81,66.4,136.3,66.4c55.3,0,104.5-26,136.3-66.4l-15.1-31.9C360.8,305.7,346.6,292,329.7,283.9z"/>
			<linearGradient id="SVGID_2_" gradientUnits="userSpaceOnUse" x1="184.9382" y1="138.2129" x2="311.1933" y2="268.9539">
				<stop  offset="0" style="stop-color:#46AEF7"/>
				<stop  offset="1" style="stop-color:#1DD5E6"/>
			</linearGradient>
			<path class="st1" d="M248.1,300.5c46.3,0,84-43.5,84-96.9c0-53.4-37.7-96.9-84-96.9s-84,43.5-84,96.9
				C164,257,201.7,300.5,248.1,300.5z M248.1,139.8c28.1,0,51,28.6,51,63.8c0,35.2-22.9,63.8-51,63.8c-28.1,0-51-28.6-51-63.8
				C197.1,168.4,220,139.8,248.1,139.8z"/>
			<linearGradient id="SVGID_3_" gradientUnits="userSpaceOnUse" x1="75.827" y1="69.7079" x2="420.3112" y2="426.4318">
				<stop  offset="0" style="stop-color:#46AEF7"/>
				<stop  offset="1" style="stop-color:#1DD5E6"/>
			</linearGradient>
			<path class="st2" d="M248.1,0C111.3,0,0,111.3,0,248.1c0,136.8,111.3,248.1,248.1,248.1c136.8,0,248.1-111.3,248.1-248.1
				C496.1,111.3,384.9,0,248.1,0z M248.1,446.5c-109.4,0-198.5-89-198.5-198.5c0-109.4,89-198.5,198.5-198.5s198.5,89,198.5,198.5
				C446.5,357.5,357.5,446.5,248.1,446.5z"/>
		</g>
	</g>
</g>
</svg>
