<?xml version="1.0" encoding="utf-8"?>
<!-- Generator: Adobe Illustrator 24.1.2, SVG Export Plug-In . SVG Version: 6.00 Build 0)  -->
<svg version="1.1" id="Layer_1" xmlns="http://www.w3.org/2000/svg" xmlns:xlink="http://www.w3.org/1999/xlink" x="0px" y="0px"
	 viewBox="0 0 639.4 642.9" style="enable-background:new 0 0 639.4 642.9;" xml:space="preserve">
<style type="text/css">
	.st0{fill:url(#SVGID_1_);}
</style>
<linearGradient id="SVGID_1_" gradientUnits="userSpaceOnUse" x1="319.7" y1="3.6571" x2="319.7" y2="642.9">
	<stop  offset="0" style="stop-color:#C7CED8"/>
	<stop  offset="1" style="stop-color:#9FAAB7"/>
</linearGradient>
<path class="st0" d="M639.4,219.6c0-41.3-33.6-74.9-74.9-74.9h-27.6c42.8-27.8,73.7-66.6,91.1-115.2l-47-16.8
	c-11.4,32-30,58.3-55.4,78.8c0.1-16.7-4.7-33.1-13.9-47.5C485.6,3.3,431.2-8.6,390.5,17.5c-29.4,18.8-54.1,57.8-70.7,90
	c-16.6-32.2-41.3-71.1-70.7-90C208.4-8.6,154,3.3,127.9,44C118.7,58.3,114,74.5,114,91.1C90.7,72.3,70.8,46.9,58.6,12.7l-47,16.8
	c17.4,48.6,48.3,87.4,91.1,115.2H74.9C33.6,144.7,0,178.3,0,219.6v94.9h50V568c0,41.3,33.6,74.9,74.9,74.9h389.6
	c41.3,0,74.9-33.6,74.9-74.9V314.5h50V219.6z M417.3,59.5c17.5-11.2,41-6.1,52.2,11.4c5.4,8.5,7.3,18.6,5.1,28.5
	c-2.2,9.9-8,18.3-16.5,23.7c-8.5,5.4-18.8,9.5-30,12.5c-18.5,4.1-36.2,6.3-51.6,7.4c-6.3,0.3-12.4,0.4-18.2,0.4c-0.2,0-0.4,0-0.6,0
	C372.3,113.1,394.9,73.9,417.3,59.5z M181.2,123.1c-8.5-5.4-14.4-13.9-16.5-23.7c-2.2-9.9-0.3-20,5.1-28.5
	c7.2-11.2,19.4-17.4,31.9-17.4c7,0,14,1.9,20.3,6c22.7,14.6,45.1,53.4,59.7,84c-0.2,0-0.4,0-0.7,0c-5.4,0-11.2-0.1-17.1-0.4
	c-16.3-1.1-35.3-3.5-55.2-8.1C198.5,132,189,128.1,181.2,123.1z M49.9,219.6c0-13.8,11.2-25,25-25h219.8v69.9H49.9V219.6z M99.9,568
	V314.5h194.8V593H124.9C111.1,593,99.9,581.8,99.9,568z M539.5,568c0,13.8-11.2,25-25,25H344.6V314.5h194.8L539.5,568L539.5,568z
	 M589.4,264.5H344.6v-69.9h219.8c13.8,0,25,11.2,25,25V264.5z"/>
</svg>
