<?xml version="1.0" encoding="utf-8"?>
<!-- Generator: Adobe Illustrator 24.1.2, SVG Export Plug-In . SVG Version: 6.00 Build 0)  -->
<svg version="1.1" id="Layer_1" xmlns="http://www.w3.org/2000/svg" xmlns:xlink="http://www.w3.org/1999/xlink" x="0px" y="0px"
	 viewBox="0 0 498 502" style="enable-background:new 0 0 498 502;" xml:space="preserve">
<style type="text/css">
	.st0{fill:url(#SVGID_1_);}
	.st1{fill:url(#SVGID_2_);}
	.st2{fill:url(#SVGID_3_);}
</style>
<g>
	
		<linearGradient id="SVGID_1_" gradientUnits="userSpaceOnUse" x1="158.8992" y1="259.8802" x2="382.9136" y2="27.9065" gradientTransform="matrix(1 0 0 -1 0 492)">
		<stop  offset="0" style="stop-color:#46AEF7"/>
		<stop  offset="1" style="stop-color:#1DD5E6"/>
	</linearGradient>
	<path class="st0" d="M457.5,251.8v69.7c0,28.9-23.4,52.3-52.3,52.3H64.5l68.8-68.8l-24.5-24.5L10.3,379c-6.7,6.7-6.7,17.8,0,24.5
		l98.5,98.5l24.5-24.5l-68.8-68.8h340.7c48,0,87-39.1,87-87V252h-34.7V251.8z"/>
	
		<linearGradient id="SVGID_2_" gradientUnits="userSpaceOnUse" x1="114.6364" y1="452.1418" x2="338.5509" y2="220.2715" gradientTransform="matrix(1 0 0 -1 0 492)">
		<stop  offset="0" style="stop-color:#46AEF7"/>
		<stop  offset="1" style="stop-color:#1DD5E6"/>
	</linearGradient>
	<path class="st1" d="M40,182.3c0-28.9,23.4-52.3,52.3-52.3H433l-68.8,68.8l24.5,24.5l98.5-98.5c6.7-6.7,6.7-17.8,0-24.5L388.7,2
		l-24.5,24.5L433,95.3H92.3c-48,0-87,39.1-87,87V252H40V182.3z"/>
	
		<linearGradient id="SVGID_3_" gradientUnits="userSpaceOnUse" x1="176.2804" y1="315.2962" x2="321.3376" y2="165.0851" gradientTransform="matrix(1 0 0 -1 0 492)">
		<stop  offset="0" style="stop-color:#46AEF7"/>
		<stop  offset="1" style="stop-color:#1DD5E6"/>
	</linearGradient>
	<path class="st2" d="M144.4,251.8c0,57.7,46.7,104.4,104.4,104.4s104.4-46.7,104.4-104.4s-46.7-104.4-104.4-104.4
		C191,147.4,144.4,194.3,144.4,251.8z M256.1,184.7v7.4c16.5,0,29.7,13.5,29.7,29.7c0,4.1-3.3,7.4-7.4,7.4s-7.4-3.3-7.4-7.4
		c0-8.2-6.7-15-15-15h-15c-8.2,0-15,6.7-15,15v7.4c0,8.2,6.7,15,15,15h15c16.5,0,29.7,13.5,29.7,29.7v7.4
		c0,16.5-13.5,29.7-29.7,29.7v7.4c0,4.1-3.3,7.4-7.4,7.4s-7.4-3.3-7.4-7.4V311c-16.5,0-29.7-13.5-29.7-29.7c0-4.1,3.3-7.4,7.4-7.4
		c4.1,0,7.4,3.3,7.4,7.4c0,8.2,6.7,15,15,15h15c8.2,0,15-6.7,15-15v-7.4c0-8.2-6.7-15-15-15h-15c-16.5,0-29.7-13.5-29.7-29.7v-7.4
		c0-16.5,13.5-29.7,29.7-29.7v-7.4c0-4.1,3.3-7.4,7.4-7.4C252.9,177.1,256.1,180.6,256.1,184.7z"/>
</g>
</svg>
