<?xml version="1.0" encoding="utf-8"?>
<!-- Generator: Adobe Illustrator 24.1.2, SVG Export Plug-In . SVG Version: 6.00 Build 0)  -->
<svg version="1.1" id="Layer_1" xmlns="http://www.w3.org/2000/svg" xmlns:xlink="http://www.w3.org/1999/xlink" x="0px" y="0px"
	 viewBox="0 0 512 459.5" style="enable-background:new 0 0 512 459.5;" xml:space="preserve">
<style type="text/css">
	.st0{fill:url(#SVGID_1_);}
</style>
<linearGradient id="SVGID_1_" gradientUnits="userSpaceOnUse" x1="60.0911" y1="380.7128" x2="451.8538" y2="-24.9695" gradientTransform="matrix(1 0 0 -1 0 464)">
	<stop  offset="0" style="stop-color:#46AEF7"/>
	<stop  offset="1" style="stop-color:#1DD5E6"/>
</linearGradient>
<path class="st0" d="M462.5,112.8H313.8c-9.1,0-16.5,7.4-16.5,16.5s7.4,16.5,16.5,16.5H381c7.3,50.6,47.4,90.6,97.9,97.9v85
	c-50.6,7.3-90.6,47.4-97.9,97.9H130.9C123.6,376,83.5,336,33,328.7v-85c50.6-7.3,90.6-47.4,97.9-97.9h67.2c9.1,0,16.5-7.4,16.5-16.5
	s-7.4-16.5-16.5-16.5H49.5C22.2,112.8,0,135,0,162.3V410c0,27.3,22.2,49.5,49.5,49.5h412.9c27.3,0,49.5-22.2,49.5-49.5V162.3
	C512,135,489.8,112.8,462.5,112.8z M414.6,145.8h47.9c9.1,0,16.5,7.4,16.5,16.5v47.9C446.7,203.6,421.1,178.1,414.6,145.8z
	 M49.5,145.8h47.9c-6.6,32.3-32.1,57.8-64.4,64.4v-47.9C33,153.2,40.4,145.8,49.5,145.8z M33,410.1v-47.9
	c32.3,6.6,57.8,32.1,64.4,64.4H49.5C40.4,426.6,33,419.2,33,410.1z M462.5,426.6h-47.9c6.6-32.3,32.1-57.8,64.4-64.4v47.9
	C479,419.2,471.6,426.6,462.5,426.6z M165.2,286.2c0,50.1,40.8,90.8,90.8,90.8s90.8-40.8,90.8-90.8S306,195.4,256,195.4
	S165.2,236.1,165.2,286.2z M313.8,286.2c0,31.9-25.9,57.8-57.8,57.8s-57.8-25.9-57.8-57.8s25.9-57.8,57.8-57.8
	S313.8,254.3,313.8,286.2z M123.9,269.7c9.1,0,16.5,7.4,16.5,16.5s-7.4,16.5-16.5,16.5h-8.3c-9.1,0-16.5-7.4-16.5-16.5
	s7.4-16.5,16.5-16.5H123.9z M388.1,302.7c-9.1,0-16.5-7.4-16.5-16.5s7.4-16.5,16.5-16.5h8.3c9.1,0,16.5,7.4,16.5,16.5
	s-7.4,16.5-16.5,16.5H388.1z M210.3,66.6c-6.5-6.4-6.5-16.9,0-23.4l34.1-34.1c6.4-6.4,16.9-6.4,23.4,0l34.1,34.1
	c6.5,6.4,6.5,16.9,0,23.4s-16.9,6.4-23.4,0l-5.9-5.9v78.8c0,9.1-7.4,16.5-16.5,16.5s-16.5-7.4-16.5-16.5V60.8l-5.9,5.9
	C227.2,73.1,216.7,73.1,210.3,66.6L210.3,66.6z"/>
</svg>
